<svg xmlns="http://www.w3.org/2000/svg" xmlns:xlink="http://www.w3.org/1999/xlink" width="1920" zoomAndPan="magnify" viewBox="0 0 1440 809.999993" height="1080" preserveAspectRatio="xMidYMid meet" version="1.0"><defs><clipPath id="d690ae2904"><path d="M 387.09375 677 L 562 677 L 562 810 L 387.09375 810 Z M 387.09375 677 " clip-rule="nonzero"/></clipPath><clipPath id="27cca72f21"><path d="M 120 759 L 270 759 L 270 810 L 120 810 Z M 120 759 " clip-rule="nonzero"/></clipPath><clipPath id="29a4615548"><path d="M 44.417969 817.4375 L 170.519531 633.820312 L 375.160156 774.359375 L 249.054688 957.976562 Z M 44.417969 817.4375 " clip-rule="nonzero"/></clipPath><clipPath id="8863776a42"><path d="M -253.6875 832.214844 L 234.167969 121.859375 L 944.527344 609.714844 L 456.671875 1320.074219 Z M -253.6875 832.214844 " clip-rule="nonzero"/></clipPath><clipPath id="54b33ba2d9"><path d="M 1349 744 L 1440 744 L 1440 810 L 1349 810 Z M 1349 744 " clip-rule="nonzero"/></clipPath><clipPath id="6e1065df40"><path d="M 1453.085938 900.410156 L 1327.867188 903.144531 L 1324.039062 727.683594 L 1449.257812 724.953125 Z M 1453.085938 900.410156 " clip-rule="nonzero"/></clipPath><clipPath id="8fd1ee6666"><path d="M 1606.027344 1011.117188 L 1208.621094 1019.785156 L 1199.949219 622.382812 L 1597.355469 613.710938 Z M 1606.027344 1011.117188 " clip-rule="nonzero"/></clipPath></defs><rect x="-144" width="1728" fill="#ffffff" y="-80.999999" height="971.999992" fill-opacity="1"/><rect x="-144" width="1728" fill="#ffffff" y="-80.999999" height="971.999992" fill-opacity="1"/><g clip-path="url(#d690ae2904)"><path fill="#ffd000" d="M 497.410156 677.695312 L 497.410156 801.058594 L 351.117188 691.238281 L 350.953125 691.238281 C 351.199219 691.484375 351.445312 691.644531 351.769531 691.890625 C 370.945312 706.660156 383.671875 731.054688 383.671875 759.121094 C 383.671875 771.851562 381.308594 784.253906 376.738281 795.023438 L 561.132812 931.6875 L 561.132812 677.695312 Z M 497.410156 677.695312 " fill-opacity="1" fill-rule="nonzero"/></g><path fill="#183eff" d="M 237.996094 1048.703125 L 237.675781 854.914062 L -14.089844 683.226562 L -14.089844 1048.703125 Z M 237.996094 1048.703125 " fill-opacity="1" fill-rule="nonzero"/><path fill="#747474" d="M 340.78125 751.597656 L 233.582031 751.597656 L 233.582031 906.707031 L 340.78125 906.707031 C 379.140625 906.707031 410.238281 872.019531 410.238281 829.152344 C 410.238281 786.289062 379.140625 751.597656 340.78125 751.597656 Z M 340.78125 751.597656 " fill-opacity="1" fill-rule="nonzero"/><path fill="#ffd000" d="M 955.007812 787.472656 L 955.007812 894.671875 L 1110.117188 894.671875 L 1110.117188 787.472656 C 1110.117188 749.113281 1075.425781 718.015625 1032.5625 718.015625 C 989.699219 718.015625 955.007812 749.113281 955.007812 787.472656 Z M 955.007812 787.472656 " fill-opacity="1" fill-rule="nonzero"/><path fill="#00d000" d="M 700.5 867.386719 C 706.277344 854.007812 709.113281 838.605469 709.113281 822.699219 C 709.113281 776.695312 681.652344 738.59375 644.363281 725.523438 L 644.363281 830.398438 Z M 700.5 867.386719 " fill-opacity="1" fill-rule="nonzero"/><g clip-path="url(#27cca72f21)"><g clip-path="url(#29a4615548)"><g clip-path="url(#8863776a42)"><path fill="#00d000" d="M 269.273438 811.40625 C 261.515625 799.074219 250.425781 788.015625 237.3125 779.007812 C 199.390625 752.964844 152.4375 754.03125 120.550781 777.371094 L 207.003906 836.742188 Z M 269.273438 811.40625 " fill-opacity="1" fill-rule="nonzero"/></g></g></g><path fill="#ff0000" d="M 535.632812 866.292969 L 535.773438 790.652344 L 646.625 713.183594 L 646.625 866.292969 Z M 535.632812 866.292969 " fill-opacity="1" fill-rule="nonzero"/><path fill="#747474" d="M 1052.546875 978.324219 L 1052.296875 826.90625 L 855.578125 692.757812 L 855.578125 978.324219 Z M 1052.546875 978.324219 " fill-opacity="1" fill-rule="nonzero"/><path fill="#183eff" d="M 857.933594 852.734375 L 857.933594 745.53125 L 702.828125 745.53125 L 702.828125 852.734375 C 702.828125 891.089844 737.515625 922.1875 780.382812 922.1875 C 823.246094 922.1875 857.933594 891.089844 857.933594 852.734375 Z M 857.933594 852.734375 " fill-opacity="1" fill-rule="nonzero"/><path fill="#00d000" d="M 857.835938 795.332031 L 924.460938 795.332031 L 865.148438 874.339844 L 865.148438 874.425781 C 865.28125 874.296875 865.371094 874.164062 865.503906 873.988281 C 873.476562 863.632812 886.652344 856.757812 901.8125 856.757812 C 908.683594 856.757812 915.382812 858.035156 921.199219 860.503906 L 995.007812 760.917969 L 857.835938 760.917969 Z M 857.835938 795.332031 " fill-opacity="1" fill-rule="nonzero"/><path fill="#00d000" d="M 1104.886719 869.507812 L 1105.039062 789.230469 L 1222.6875 707.011719 L 1222.6875 869.507812 Z M 1104.886719 869.507812 " fill-opacity="1" fill-rule="nonzero"/><g clip-path="url(#54b33ba2d9)"><g clip-path="url(#6e1065df40)"><g clip-path="url(#8fd1ee6666)"><path fill="#747474" d="M 1389.601562 889.585938 L 1388.058594 818.890625 L 1473.265625 879.996094 L 1473.359375 879.992188 C 1473.214844 879.855469 1473.074219 879.765625 1472.882812 879.628906 C 1461.710938 871.40625 1454.113281 857.585938 1453.761719 841.503906 C 1453.601562 834.207031 1454.800781 827.074219 1457.285156 820.84375 L 1349.910156 744.835938 L 1353.085938 890.382812 Z M 1389.601562 889.585938 " fill-opacity="1" fill-rule="nonzero"/></g></g></g><path fill="#183eff" d="M 1157.867188 980.859375 L 1158.117188 845.289062 L 1356.804688 706.4375 L 1356.804688 980.859375 Z M 1157.867188 980.859375 " fill-opacity="1" fill-rule="nonzero"/></svg>